<?xml version="1.0" encoding="utf-8"?>
<!-- Generator: Circuit Diagram, cdlibrary.dll 4.0.0.0 -->
<!DOCTYPE svg PUBLIC "-//W3C//DTD SVG 1.1//EN" "http://www.w3.org/Graphics/SVG/1.1/DTD/svg11.dtd">
<svg version="1.1" width="560" height="280" xmlns="http://www.w3.org/2000/svg">
	<text x="340" y="50" style="font-family:Arial;font-size:11px;text-anchor:start" dominant-baseline="middle" transform="rotate(0, 340, 50)">VREF pin</text>
	<line x1="540" y1="90" x2="540" y2="260" style="stroke:rgb(0, 0, 0);stroke-linecap:square;stroke-width:2" />
	<line x1="500" y1="90" x2="540" y2="90" style="stroke:rgb(0, 0, 0);stroke-linecap:square;stroke-width:2" />
	<line x1="190" y1="260" x2="540" y2="260" style="stroke:rgb(0, 0, 0);stroke-linecap:square;stroke-width:2" />
	<line x1="190" y1="170" x2="190" y2="260" style="stroke:rgb(0, 0, 0);stroke-linecap:square;stroke-width:2" />
	<line x1="150" y1="170" x2="190" y2="170" style="stroke:rgb(0, 0, 0);stroke-linecap:square;stroke-width:2" />
	<line x1="100" y1="30" x2="350" y2="30" style="stroke:rgb(0, 0, 0);stroke-linecap:square;stroke-width:2" />
	<line x1="100" y1="30" x2="100" y2="170" style="stroke:rgb(0, 0, 0);stroke-linecap:square;stroke-width:2" />
	<line x1="150" y1="170" x2="150" y2="180" style="stroke:rgb(0, 0, 0);stroke-linecap:square;stroke-width:2" />
	<line x1="150" y1="220" x2="150" y2="230" style="stroke:rgb(0, 0, 0);stroke-linecap:square;stroke-width:2" />
	<line x1="150" y1="180" x2="150" y2="186" style="stroke:rgb(0, 0, 0);stroke-linecap:square;stroke-width:2" />
	<line x1="150" y1="186" x2="156" y2="186" style="stroke:rgb(0, 0, 0);stroke-linecap:square;stroke-width:2" />
	<line x1="150" y1="214" x2="150" y2="220" style="stroke:rgb(0, 0, 0);stroke-linecap:square;stroke-width:2" />
	<line x1="150" y1="214" x2="156" y2="214" style="stroke:rgb(0, 0, 0);stroke-linecap:square;stroke-width:2" />
	<path d="M 150,200 A 20,20 90 0 1 170,180 L 170,220 A 20,20 90 0 1 150,200 Z" style="fill-opacity:0;fill:rgb(0, 0, 0);stroke:rgb(0, 0, 0);stroke-linecap:square;stroke-width:2" />
	<line x1="240" y1="100" x2="240" y2="230" style="stroke:rgb(0, 0, 0);stroke-linecap:square;stroke-width:2" />
	<line x1="50" y1="170" x2="100" y2="170" style="stroke:rgb(0, 0, 0);stroke-linecap:square;stroke-width:2" />
	<line x1="340" y1="130" x2="340" y2="230" style="stroke:rgb(0, 0, 0);stroke-linecap:square;stroke-width:2" />
	<line x1="50" y1="230" x2="340" y2="230" style="stroke:rgb(0, 0, 0);stroke-linecap:square;stroke-width:2" />
	<line x1="50" y1="170" x2="50" y2="180" style="stroke:rgb(0, 0, 0);stroke-linecap:square;stroke-width:2" />
	<line x1="50" y1="220" x2="50" y2="230" style="stroke:rgb(0, 0, 0);stroke-linecap:square;stroke-width:2" />
	<path d="M 50,180 L 50,182 L 43,185 L 57,191 L 43,197 L 57,203 L 43,209 L 57,215 L 50,218 L 50,220" style="fill-opacity:0;fill:rgb(0, 0, 0);stroke:rgb(0, 0, 0);stroke-linecap:square;stroke-width:2" />
	<text x="36" y="200" style="font-family:Arial;font-size:11px;text-anchor:end" dominant-baseline="middle" transform="rotate(0, 36, 200)">R1</text>
	<line x1="50" y1="110" x2="50" y2="120" style="stroke:rgb(0, 0, 0);stroke-linecap:square;stroke-width:2" />
	<line x1="50" y1="160" x2="50" y2="170" style="stroke:rgb(0, 0, 0);stroke-linecap:square;stroke-width:2" />
	<path d="M 50,120 L 50,122 L 43,125 L 57,131 L 43,137 L 57,143 L 43,149 L 57,155 L 50,158 L 50,160" style="fill-opacity:0;fill:rgb(0, 0, 0);stroke:rgb(0, 0, 0);stroke-linecap:square;stroke-width:2" />
	<text x="36" y="140" style="font-family:Arial;font-size:11px;text-anchor:end" dominant-baseline="middle" transform="rotate(0, 36, 140)">R1</text>
	<line x1="340" y1="130" x2="370" y2="130" style="stroke:rgb(0, 0, 0);stroke-linecap:square;stroke-width:2" />
	<line x1="220" y1="100" x2="220" y2="190" style="stroke:rgb(0, 0, 0);stroke-linecap:square;stroke-width:2" />
	<line x1="220" y1="190" x2="500" y2="190" style="stroke:rgb(0, 0, 0);stroke-linecap:square;stroke-width:2" />
	<line x1="230" y1="100" x2="230" y2="180" style="stroke:rgb(0, 0, 0);stroke-linecap:square;stroke-width:2" />
	<line x1="230" y1="180" x2="500" y2="180" style="stroke:rgb(0, 0, 0);stroke-linecap:square;stroke-width:2" />
	<line x1="210" y1="100" x2="210" y2="110" style="stroke:rgb(0, 0, 0);stroke-linecap:square;stroke-width:2" />
	<rect x="160" y="40" width="130" height="50" style="fill-opacity:0;fill:rgb(0, 0, 0);stroke:rgb(0, 0, 0);stroke-width:2" />
	<line x1="210" y1="100" x2="210" y2="90" style="stroke:rgb(0, 0, 0);stroke-linecap:square;stroke-width:2" />
	<line x1="220" y1="100" x2="220" y2="90" style="stroke:rgb(0, 0, 0);stroke-linecap:square;stroke-width:2" />
	<line x1="230" y1="100" x2="230" y2="90" style="stroke:rgb(0, 0, 0);stroke-linecap:square;stroke-width:2" />
	<line x1="240" y1="100" x2="240" y2="90" style="stroke:rgb(0, 0, 0);stroke-linecap:square;stroke-width:2" />
	<ellipse cx="182" cy="65" rx="14" ry="14" style="fill-opacity:0;fill:rgb(0, 0, 0);stroke:rgb(0, 0, 0);stroke-width:2" />
	<ellipse cx="268" cy="65" rx="14" ry="14" style="fill-opacity:0;fill:rgb(0, 0, 0);stroke:rgb(0, 0, 0);stroke-width:2" />
	<text x="210" y="86" style="font-family:Arial;font-size:11px;text-anchor:start" dominant-baseline="middle" transform="rotate(270, 210, 86)">VCC</text>
	<text x="220" y="86" style="font-family:Arial;font-size:11px;text-anchor:start" dominant-baseline="middle" transform="rotate(270, 220, 86)">TRIG</text>
	<text x="230" y="86" style="font-family:Arial;font-size:11px;text-anchor:start" dominant-baseline="middle" transform="rotate(270, 230, 86)">ECHO</text>
	<text x="240" y="86" style="font-family:Arial;font-size:11px;text-anchor:start" dominant-baseline="middle" transform="rotate(270, 240, 86)">GND</text>
	<line x1="50" y1="110" x2="370" y2="110" style="stroke:rgb(0, 0, 0);stroke-linecap:square;stroke-width:2" />
	<rect x="375" y="25" width="120" height="195" style="fill-opacity:0;fill:rgb(0, 0, 0);stroke:rgb(0, 0, 0);stroke-width:2" />
	<text x="411" y="55" style="font-family:Arial;font-size:11px;text-anchor:start" dominant-baseline="middle" transform="rotate(0, 411, 55)">ARDUINO</text>
	<text x="418" y="65" style="font-family:Arial;font-size:11px;text-anchor:start" dominant-baseline="middle" transform="rotate(0, 418, 65)">UNO r3</text>
	<line x1="370" y1="80" x2="375" y2="80" style="stroke:rgb(0, 0, 0);stroke-linecap:square;stroke-width:2" />
	<line x1="370" y1="90" x2="375" y2="90" style="stroke:rgb(0, 0, 0);stroke-linecap:square;stroke-width:2" />
	<line x1="370" y1="100" x2="375" y2="100" style="stroke:rgb(0, 0, 0);stroke-linecap:square;stroke-width:2" />
	<line x1="370" y1="110" x2="375" y2="110" style="stroke:rgb(0, 0, 0);stroke-linecap:square;stroke-width:2" />
	<line x1="370" y1="120" x2="375" y2="120" style="stroke:rgb(0, 0, 0);stroke-linecap:square;stroke-width:2" />
	<line x1="370" y1="130" x2="375" y2="130" style="stroke:rgb(0, 0, 0);stroke-linecap:square;stroke-width:2" />
	<line x1="370" y1="140" x2="375" y2="140" style="stroke:rgb(0, 0, 0);stroke-linecap:square;stroke-width:2" />
	<line x1="370" y1="160" x2="375" y2="160" style="stroke:rgb(0, 0, 0);stroke-linecap:square;stroke-width:2" />
	<line x1="370" y1="170" x2="375" y2="170" style="stroke:rgb(0, 0, 0);stroke-linecap:square;stroke-width:2" />
	<line x1="370" y1="180" x2="375" y2="180" style="stroke:rgb(0, 0, 0);stroke-linecap:square;stroke-width:2" />
	<line x1="370" y1="190" x2="375" y2="190" style="stroke:rgb(0, 0, 0);stroke-linecap:square;stroke-width:2" />
	<line x1="370" y1="200" x2="375" y2="200" style="stroke:rgb(0, 0, 0);stroke-linecap:square;stroke-width:2" />
	<line x1="370" y1="210" x2="375" y2="210" style="stroke:rgb(0, 0, 0);stroke-linecap:square;stroke-width:2" />
	<line x1="495" y1="50" x2="500" y2="50" style="stroke:rgb(0, 0, 0);stroke-linecap:square;stroke-width:2" />
	<line x1="495" y1="60" x2="500" y2="60" style="stroke:rgb(0, 0, 0);stroke-linecap:square;stroke-width:2" />
	<line x1="495" y1="70" x2="500" y2="70" style="stroke:rgb(0, 0, 0);stroke-linecap:square;stroke-width:2" />
	<line x1="495" y1="80" x2="500" y2="80" style="stroke:rgb(0, 0, 0);stroke-linecap:square;stroke-width:2" />
	<line x1="495" y1="90" x2="500" y2="90" style="stroke:rgb(0, 0, 0);stroke-linecap:square;stroke-width:2" />
	<line x1="495" y1="100" x2="500" y2="100" style="stroke:rgb(0, 0, 0);stroke-linecap:square;stroke-width:2" />
	<line x1="495" y1="110" x2="500" y2="110" style="stroke:rgb(0, 0, 0);stroke-linecap:square;stroke-width:2" />
	<line x1="495" y1="120" x2="500" y2="120" style="stroke:rgb(0, 0, 0);stroke-linecap:square;stroke-width:2" />
	<line x1="495" y1="140" x2="500" y2="140" style="stroke:rgb(0, 0, 0);stroke-linecap:square;stroke-width:2" />
	<line x1="495" y1="150" x2="500" y2="150" style="stroke:rgb(0, 0, 0);stroke-linecap:square;stroke-width:2" />
	<line x1="495" y1="160" x2="500" y2="160" style="stroke:rgb(0, 0, 0);stroke-linecap:square;stroke-width:2" />
	<line x1="495" y1="170" x2="500" y2="170" style="stroke:rgb(0, 0, 0);stroke-linecap:square;stroke-width:2" />
	<line x1="495" y1="180" x2="500" y2="180" style="stroke:rgb(0, 0, 0);stroke-linecap:square;stroke-width:2" />
	<line x1="495" y1="190" x2="500" y2="190" style="stroke:rgb(0, 0, 0);stroke-linecap:square;stroke-width:2" />
	<line x1="495" y1="200" x2="500" y2="200" style="stroke:rgb(0, 0, 0);stroke-linecap:square;stroke-width:2" />
	<line x1="495" y1="210" x2="500" y2="210" style="stroke:rgb(0, 0, 0);stroke-linecap:square;stroke-width:2" />
	<text x="379" y="80" style="font-family:Arial;font-size:11px;text-anchor:start" dominant-baseline="middle" transform="rotate(0, 379, 80)">IOREF</text>
	<text x="379" y="90" style="font-family:Arial;font-size:11px;text-anchor:start" dominant-baseline="middle" transform="rotate(0, 379, 90)">RESET</text>
	<text x="379" y="100" style="font-family:Arial;font-size:11px;text-anchor:start" dominant-baseline="middle" transform="rotate(0, 379, 100)">3.3V</text>
	<text x="379" y="110" style="font-family:Arial;font-size:11px;text-anchor:start" dominant-baseline="middle" transform="rotate(0, 379, 110)">5V</text>
	<text x="379" y="120" style="font-family:Arial;font-size:11px;text-anchor:start" dominant-baseline="middle" transform="rotate(0, 379, 120)">GND</text>
	<text x="379" y="130" style="font-family:Arial;font-size:11px;text-anchor:start" dominant-baseline="middle" transform="rotate(0, 379, 130)">GND</text>
	<text x="379" y="140" style="font-family:Arial;font-size:11px;text-anchor:start" dominant-baseline="middle" transform="rotate(0, 379, 140)">Vin</text>
	<text x="379" y="160" style="font-family:Arial;font-size:11px;text-anchor:start" dominant-baseline="middle" transform="rotate(0, 379, 160)">A0</text>
	<text x="379" y="170" style="font-family:Arial;font-size:11px;text-anchor:start" dominant-baseline="middle" transform="rotate(0, 379, 170)">A1</text>
	<text x="379" y="180" style="font-family:Arial;font-size:11px;text-anchor:start" dominant-baseline="middle" transform="rotate(0, 379, 180)">A2</text>
	<text x="379" y="190" style="font-family:Arial;font-size:11px;text-anchor:start" dominant-baseline="middle" transform="rotate(0, 379, 190)">A3</text>
	<text x="379" y="200" style="font-family:Arial;font-size:11px;text-anchor:start" dominant-baseline="middle" transform="rotate(0, 379, 200)">A4</text>
	<text x="379" y="210" style="font-family:Arial;font-size:11px;text-anchor:start" dominant-baseline="middle" transform="rotate(0, 379, 210)">A5</text>
	<text x="491" y="50" style="font-family:Arial;font-size:11px;text-anchor:end" dominant-baseline="middle" transform="rotate(0, 491, 50)">AREF</text>
	<text x="491" y="60" style="font-family:Arial;font-size:11px;text-anchor:end" dominant-baseline="middle" transform="rotate(0, 491, 60)">GND</text>
	<text x="491" y="70" style="font-family:Arial;font-size:11px;text-anchor:end" dominant-baseline="middle" transform="rotate(0, 491, 70)">D13</text>
	<text x="491" y="80" style="font-family:Arial;font-size:11px;text-anchor:end" dominant-baseline="middle" transform="rotate(0, 491, 80)">D12</text>
	<text x="491" y="90" style="font-family:Arial;font-size:11px;text-anchor:end" dominant-baseline="middle" transform="rotate(0, 491, 90)">PWM D11</text>
	<text x="491" y="100" style="font-family:Arial;font-size:11px;text-anchor:end" dominant-baseline="middle" transform="rotate(0, 491, 100)">PWM D10</text>
	<text x="491" y="110" style="font-family:Arial;font-size:11px;text-anchor:end" dominant-baseline="middle" transform="rotate(0, 491, 110)">PWM   D9</text>
	<text x="491" y="120" style="font-family:Arial;font-size:11px;text-anchor:end" dominant-baseline="middle" transform="rotate(0, 491, 120)">D8</text>
	<text x="491" y="140" style="font-family:Arial;font-size:11px;text-anchor:end" dominant-baseline="middle" transform="rotate(0, 491, 140)">D7</text>
	<text x="491" y="150" style="font-family:Arial;font-size:11px;text-anchor:end" dominant-baseline="middle" transform="rotate(0, 491, 150)">PWM   D6</text>
	<text x="491" y="160" style="font-family:Arial;font-size:11px;text-anchor:end" dominant-baseline="middle" transform="rotate(0, 491, 160)">PWM   D5</text>
	<text x="491" y="170" style="font-family:Arial;font-size:11px;text-anchor:end" dominant-baseline="middle" transform="rotate(0, 491, 170)">D4</text>
	<text x="491" y="180" style="font-family:Arial;font-size:11px;text-anchor:end" dominant-baseline="middle" transform="rotate(0, 491, 180)">PWM   D3</text>
	<text x="491" y="190" style="font-family:Arial;font-size:11px;text-anchor:end" dominant-baseline="middle" transform="rotate(0, 491, 190)">D2</text>
	<text x="491" y="200" style="font-family:Arial;font-size:11px;text-anchor:end" dominant-baseline="middle" transform="rotate(0, 491, 200)">TX   D1</text>
	<text x="491" y="210" style="font-family:Arial;font-size:11px;text-anchor:end" dominant-baseline="middle" transform="rotate(0, 491, 210)">RX   D0</text>
	<path d="M 435,40 M 435,40 c 2,9 15,9 15,0 c 0,-9 -13,-9 -15,0" style="fill-opacity:0;fill:rgb(0, 0, 0);stroke:rgb(0, 0, 0);stroke-linecap:square;stroke-width:2" />
	<path d="M 435,40 M 435,40 c -2,-9 -15,-9 -15,0 c 0,9 13,9 15,0" style="fill-opacity:0;fill:rgb(0, 0, 0);stroke:rgb(0, 0, 0);stroke-linecap:square;stroke-width:2" />
	<line x1="441" y1="40" x2="445" y2="40" style="stroke:rgb(0, 0, 0);stroke-linecap:square;stroke-width:2" />
	<line x1="443" y1="42" x2="443" y2="38" style="stroke:rgb(0, 0, 0);stroke-linecap:square;stroke-width:2" />
	<line x1="429" y1="40" x2="425" y2="40" style="stroke:rgb(0, 0, 0);stroke-linecap:square;stroke-width:2" />
	<ellipse cx="150" cy="230" rx="2" ry="2" style="fill-opacity:1;fill:rgb(0, 0, 0);stroke:rgb(0, 0, 0);stroke-width:2" />
	<ellipse cx="240" cy="230" rx="2" ry="2" style="fill-opacity:1;fill:rgb(0, 0, 0);stroke:rgb(0, 0, 0);stroke-width:2" />
	<ellipse cx="50" cy="170" rx="2" ry="2" style="fill-opacity:1;fill:rgb(0, 0, 0);stroke:rgb(0, 0, 0);stroke-width:2" />
	<ellipse cx="210" cy="110" rx="2" ry="2" style="fill-opacity:1;fill:rgb(0, 0, 0);stroke:rgb(0, 0, 0);stroke-width:2" />
</svg>